<?xml version="1.0" encoding="UTF-8"?>
<svg xmlns="http://www.w3.org/2000/svg" xmlns:xlink="http://www.w3.org/1999/xlink" width="24pt" height="24pt" viewBox="0 0 24 24" version="1.1">
<g id="surface1">
<path style=" stroke:none;fill-rule:nonzero;fill:rgb(80%,80%,80%);fill-opacity:1;" d="M 3.140625 6.96875 C 3.65625 7.242188 10.820312 11.148438 11.085938 11.289062 C 11.351562 11.429688 11.625 11.492188 12.046875 11.492188 C 12.46875 11.492188 12.742188 11.429688 13.007812 11.289062 C 13.273438 11.148438 20.4375 7.242188 20.953125 6.96875 C 21.144531 6.871094 21.46875 6.695312 21.539062 6.492188 C 21.660156 6.136719 21.53125 6 21.007812 6 L 3.085938 6 C 2.5625 6 2.433594 6.140625 2.554688 6.492188 C 2.625 6.699219 2.949219 6.871094 3.140625 6.96875 Z M 3.140625 6.96875 "/>
<path style=" stroke:none;fill-rule:nonzero;fill:rgb(80%,80%,80%);fill-opacity:1;" d="M 21.359375 7.179688 C 20.976562 7.378906 17.527344 9.835938 15.242188 11.3125 L 19.097656 15.648438 C 19.191406 15.742188 19.234375 15.851562 19.179688 15.910156 C 19.125 15.960938 19.003906 15.933594 18.90625 15.84375 L 14.28125 11.945312 C 13.585938 12.394531 13.09375 12.703125 13.007812 12.75 C 12.648438 12.933594 12.394531 12.957031 12.046875 12.957031 C 11.699219 12.957031 11.445312 12.933594 11.085938 12.75 C 10.996094 12.703125 10.507812 12.394531 9.8125 11.945312 L 5.1875 15.84375 C 5.09375 15.9375 4.96875 15.964844 4.914062 15.910156 C 4.855469 15.859375 4.898438 15.742188 4.992188 15.648438 L 8.839844 11.3125 C 6.558594 9.835938 3.070312 7.378906 2.6875 7.179688 C 2.273438 6.96875 2.25 7.21875 2.25 7.410156 C 2.25 7.601562 2.25 17.019531 2.25 17.019531 C 2.25 17.457031 2.890625 18 3.351562 18 L 20.742188 18 C 21.203125 18 21.75 17.453125 21.75 17.019531 C 21.75 17.019531 21.75 7.597656 21.75 7.410156 C 21.75 7.214844 21.777344 6.96875 21.359375 7.179688 Z M 21.359375 7.179688 "/>
</g>
</svg>
