<?xml version="1.0" encoding="UTF-8"?>
<svg xmlns="http://www.w3.org/2000/svg" xmlns:xlink="http://www.w3.org/1999/xlink" width="24pt" height="24pt" viewBox="0 0 24 24" version="1.1">
<g id="surface1">
<path style=" stroke:none;fill-rule:nonzero;fill:rgb(80%,80%,80%);fill-opacity:1;" d="M 12.660156 11.410156 L 12.660156 11.378906 C 12.65625 11.390625 12.648438 11.402344 12.640625 11.410156 Z M 12.660156 11.410156 "/>
<path style=" stroke:none;fill-rule:nonzero;fill:rgb(80%,80%,80%);fill-opacity:1;" d="M 20.742188 1.964844 L 3.007812 1.964844 C 2.160156 1.964844 1.472656 2.636719 1.472656 3.464844 L 1.472656 21.40625 C 1.472656 22.234375 2.160156 22.90625 3.007812 22.90625 L 20.742188 22.90625 C 21.59375 22.90625 22.28125 22.234375 22.28125 21.40625 L 22.28125 3.464844 C 22.28125 2.636719 21.59375 1.964844 20.742188 1.964844 Z M 7.777344 19.496094 L 4.636719 19.496094 L 4.636719 10.039062 L 7.777344 10.039062 Z M 6.207031 8.75 L 6.1875 8.75 C 5.132812 8.75 4.449219 8.023438 4.449219 7.113281 C 4.449219 6.1875 5.152344 5.480469 6.226562 5.480469 C 7.304688 5.480469 7.964844 6.1875 7.984375 7.113281 C 7.984375 8.023438 7.304688 8.75 6.207031 8.75 Z M 19.113281 19.496094 L 15.96875 19.496094 L 15.96875 14.4375 C 15.96875 13.164062 15.515625 12.296875 14.378906 12.296875 C 13.511719 12.296875 12.992188 12.882812 12.765625 13.449219 C 12.683594 13.648438 12.660156 13.933594 12.660156 14.214844 L 12.660156 19.496094 L 9.519531 19.496094 C 9.519531 19.496094 9.558594 10.925781 9.519531 10.039062 L 12.660156 10.039062 L 12.660156 11.378906 C 13.078125 10.734375 13.828125 9.816406 15.496094 9.816406 C 17.5625 9.816406 19.113281 11.167969 19.113281 14.074219 Z M 19.113281 19.496094 "/>
</g>
</svg>
