<?xml version="1.0" encoding="UTF-8"?>
<svg xmlns="http://www.w3.org/2000/svg" xmlns:xlink="http://www.w3.org/1999/xlink" width="24pt" height="24pt" viewBox="0 0 24 24" version="1.1">
<g id="surface1">
<path style=" stroke:none;fill-rule:nonzero;fill:rgb(80%,80%,80%);fill-opacity:1;" d="M 15.375 10.46875 C 15.292969 10.46875 15.078125 10.71875 15.113281 10.765625 C 15.347656 11.007812 15.597656 11.230469 15.863281 11.4375 C 15.96875 11.347656 16.0625 11.242188 16.140625 11.125 C 16.179688 11.015625 15.457031 10.46875 15.375 10.46875 Z M 15.652344 9.433594 C 15.574219 9.433594 15.359375 9.683594 15.390625 9.730469 C 15.492188 9.878906 16.457031 10.683594 16.457031 10.683594 C 16.566406 10.59375 16.660156 10.488281 16.734375 10.371094 C 16.785156 10.257812 15.75 9.433594 15.652344 9.433594 Z M 16.328125 8.566406 C 16.246094 8.566406 16.03125 8.8125 16.066406 8.859375 C 16.300781 9.101562 16.550781 9.328125 16.816406 9.535156 C 16.921875 9.445312 17.015625 9.339844 17.09375 9.222656 C 17.128906 9.109375 16.410156 8.566406 16.328125 8.566406 Z M 16.410156 7.441406 C 16.328125 7.441406 16.113281 7.6875 16.148438 7.734375 C 16.246094 7.882812 17.066406 8.605469 17.066406 8.605469 C 17.175781 8.515625 17.269531 8.414062 17.34375 8.296875 C 17.390625 8.171875 16.5 7.433594 16.410156 7.433594 Z M 16.292969 6.75 C 16.527344 6.988281 16.78125 7.214844 17.042969 7.421875 C 17.152344 7.332031 17.246094 7.226562 17.324219 7.109375 C 17.375 6.992188 16.648438 6.453125 16.574219 6.453125 C 16.5 6.453125 16.261719 6.710938 16.292969 6.75 Z M 4.527344 5.59375 C 4.457031 5.59375 4.265625 5.890625 4.265625 5.890625 C 4.265625 6.003906 4.96875 6.5 4.96875 6.5 C 4.96875 6.5 5.246094 6.234375 5.296875 6.167969 C 5.34375 6.101562 4.589844 5.59375 4.527344 5.59375 Z M 5.527344 4.953125 C 5.527344 4.953125 5.125 5.121094 5.183594 5.214844 C 5.492188 5.558594 5.835938 5.867188 6.214844 6.136719 C 6.296875 6.152344 6.460938 5.859375 6.496094 5.808594 C 6.191406 5.503906 5.867188 5.214844 5.527344 4.953125 Z M 6.277344 4.082031 C 6.179688 4.082031 5.839844 4.425781 5.902344 4.457031 C 6.257812 4.738281 6.632812 4.988281 7.027344 5.207031 C 7.160156 5.226562 7.226562 5.0625 7.242188 4.945312 C 6.984375 4.601562 6.664062 4.308594 6.296875 4.082031 Z M 9.480469 1.785156 C 9.480469 1.671875 8.214844 1.671875 8.101562 1.6875 C 7.648438 2.109375 7.242188 2.578125 6.886719 3.082031 C 7.046875 3.167969 7.230469 3.195312 7.410156 3.164062 C 7.5 3.132812 8.1875 2.25 8.25 2.164062 C 8.3125 2.078125 9.152344 2.210938 9.25 2.164062 C 9.382812 2.074219 9.46875 1.9375 9.5 1.785156 Z M 10.546875 16.152344 C 8.480469 16.726562 7.546875 17.59375 7.640625 18.710938 C 7.738281 19.828125 8.132812 21.042969 10.183594 21.222656 C 12.074219 21.34375 13.96875 21.074219 15.75 20.433594 C 16.980469 19.957031 16.875 19.253906 16.800781 18.300781 C 16.726562 17.347656 16.324219 15.871094 15.257812 15.722656 C 14.195312 15.578125 11.523438 15.886719 10.5625 16.152344 Z M 15.257812 16.691406 C 15.914062 16.757812 16.210938 17.953125 16.128906 18.695312 C 16.046875 19.433594 15.832031 19.742188 14.683594 20.007812 C 13.539062 20.269531 11.089844 20.757812 10.054688 20.433594 C 9.644531 20.296875 9.320312 19.972656 9.1875 19.5625 C 9.058594 19.148438 9.128906 18.699219 9.382812 18.347656 C 9.683594 17.839844 10.144531 17.445312 10.695312 17.222656 C 11.71875 16.78125 14.625 16.628906 15.277344 16.691406 Z M 11.074219 3.328125 C 8.152344 4.125 9.167969 8.8125 10.417969 10.222656 C 11.667969 11.632812 13.601562 11.753906 14.542969 10.453125 C 15.484375 9.15625 15.148438 6.265625 14.3125 4.453125 C 13.476562 2.644531 11.835938 3.125 11.074219 3.328125 Z M 13.875 10.011719 C 13.21875 10.800781 12.101562 10.945312 11.050781 9.636719 C 10 8.328125 9.152344 4.988281 11.832031 4.449219 C 12.957031 4.21875 13.964844 5.085938 14.195312 6.21875 C 14.421875 7.351562 14.539062 9.222656 13.875 10.011719 Z M 21.710938 5.332031 C 21.628906 4.855469 21.359375 4.429688 20.960938 4.152344 L 20.761719 2.210938 C 20.925781 2.109375 21.054688 1.960938 21.136719 1.785156 C 21.191406 1.441406 21.199219 1.09375 21.152344 0.75 C 21.121094 0.457031 20.628906 0.457031 19.183594 0.421875 C 17.742188 0.390625 8.449219 0.375 8.019531 0.375 C 7.59375 0.375 7.035156 1.066406 6.246094 1.984375 C 5.460938 2.902344 2.625 6.054688 2.078125 6.84375 C 1.53125 7.632812 2.277344 8.121094 3.097656 8.089844 L 5.527344 8.089844 C 5.617188 8.457031 5.742188 8.816406 5.902344 9.160156 C 6.277344 10.0625 7.105469 11.945312 8.417969 12.886719 C 9.730469 13.828125 12.707031 13.695312 12.707031 13.695312 C 12.707031 13.695312 9.007812 14.960938 7.0625 15.859375 C 6.242188 16.21875 5.601562 16.890625 5.28125 17.726562 C 4.960938 18.558594 4.988281 19.488281 5.355469 20.300781 C 6.035156 21.726562 8.179688 24.003906 13.734375 23.585938 C 19.292969 23.171875 19.515625 20.085938 19.230469 17.585938 C 18.945312 15.089844 16.1875 13.300781 16.1875 13.300781 L 16.1875 12.9375 C 17.121094 12.226562 17.828125 11.261719 18.226562 10.160156 C 18.882812 8.320312 18.15625 4.820312 18.15625 4.820312 L 19.65625 3.175781 L 19.679688 4.773438 C 19.535156 4.859375 19.410156 4.972656 19.304688 5.105469 C 19.207031 5.265625 19.171875 5.527344 19.273438 7.535156 C 19.375 9.539062 18.945312 12.035156 19.929688 12.621094 C 20.917969 13.210938 21.996094 12.421875 22.066406 11.832031 C 22.132812 11.238281 21.808594 6.085938 21.710938 5.332031 Z M 17.210938 4.535156 C 17.210938 4.6875 18 6.855469 17.605469 8.660156 C 17.363281 9.957031 16.707031 11.140625 15.730469 12.035156 C 15.097656 12.605469 15.097656 12.734375 15.097656 12.785156 C 15.171875 13.175781 15.296875 13.550781 15.472656 13.910156 C 15.582031 13.949219 17.648438 14.859375 18.074219 16.816406 C 17.882812 16.65625 17.683594 16.511719 17.472656 16.378906 C 17.375 16.351562 17.207031 16.753906 17.207031 16.753906 L 18.175781 17.535156 C 18.175781 17.65625 18.175781 17.773438 18.195312 17.890625 C 17.9375 17.667969 17.660156 17.464844 17.375 17.28125 C 17.273438 17.246094 17.109375 17.65625 17.109375 17.65625 L 18.175781 18.515625 C 18.160156 18.695312 18.132812 18.875 18.089844 19.050781 C 17.886719 18.84375 17.664062 18.664062 17.421875 18.507812 C 17.324219 18.476562 17.160156 18.882812 17.160156 18.882812 L 17.933594 19.558594 C 17.875 19.695312 17.808594 19.828125 17.734375 19.953125 C 17.554688 19.785156 17.363281 19.636719 17.160156 19.503906 C 17.0625 19.472656 16.898438 19.878906 16.898438 19.878906 L 17.449219 20.363281 C 17.386719 20.453125 17.320312 20.542969 17.25 20.625 C 17.050781 20.460938 16.839844 20.308594 16.625 20.167969 C 16.542969 20.117188 16.296875 20.382812 16.296875 20.429688 C 16.460938 20.632812 16.636719 20.824219 16.828125 21 C 16.710938 21.097656 16.585938 21.1875 16.453125 21.269531 C 16.363281 21.082031 16.210938 20.925781 16.027344 20.828125 C 15.902344 20.855469 15.789062 20.917969 15.699219 21.007812 C 15.664062 21.0625 15.898438 21.328125 16.046875 21.484375 C 14.605469 22.15625 12.363281 22.382812 10.378906 22.171875 C 8.199219 21.941406 6.71875 21.402344 6.078125 19.839844 C 5.4375 18.28125 6.175781 17.015625 7.933594 16.179688 C 9.695312 15.34375 14.078125 13.964844 14.109375 13.875 C 14.070312 13.457031 13.980469 13.042969 13.847656 12.640625 C 13.800781 12.640625 11.402344 12.984375 9.25 11.757812 C 7.796875 10.984375 6.722656 9.648438 6.28125 8.0625 C 6.019531 7.207031 5.953125 6.9375 5.886719 6.914062 C 5.824219 6.890625 2.96875 6.789062 2.945312 6.710938 C 2.917969 6.636719 7.820312 1.066406 7.933594 1.019531 C 8.050781 0.976562 20.234375 1.066406 20.210938 1.195312 C 20.191406 1.328125 17.210938 4.378906 17.210938 4.535156 Z M 21.375 10.601562 C 21.261719 11.863281 20.472656 11.949219 20.144531 11.222656 C 19.820312 10.5 19.875 5.625 19.875 5.625 C 20.039062 5.460938 20.175781 5.273438 20.285156 5.070312 C 20.285156 4.988281 20.105469 2.703125 20.117188 2.640625 C 20.171875 2.550781 20.242188 2.464844 20.316406 2.390625 L 20.53125 4.726562 C 20.53125 4.726562 21.007812 4.921875 21.023438 5.035156 C 21.039062 5.152344 21.5 9.335938 21.375 10.601562 Z M 20.421875 10.355469 C 20.539062 10.46875 20.980469 10.816406 21.097656 10.800781 C 21.214844 10.785156 21.144531 10.648438 21.195312 10.503906 C 21.242188 10.359375 20.671875 9.980469 20.585938 9.980469 C 20.503906 9.980469 20.429688 10.355469 20.429688 10.355469 Z M 20.457031 10.648438 C 20.375 10.648438 20.292969 10.980469 20.292969 10.980469 C 20.40625 11.09375 20.851562 11.4375 20.964844 11.421875 C 21.082031 11.40625 21.015625 11.324219 21.0625 11.175781 C 21.113281 11.023438 20.546875 10.648438 20.464844 10.648438 Z M 20.457031 10.648438 "/>
</g>
</svg>
